<?xml version="1.0" encoding="UTF-8" standalone="no"?><!DOCTYPE svg PUBLIC "-//W3C//DTD SVG 1.1//EN" "http://www.w3.org/Graphics/SVG/1.1/DTD/svg11.dtd"><svg width="100%" height="100%" viewBox="0 0 308684 308684" version="1.1" xmlns="http://www.w3.org/2000/svg" xmlns:xlink="http://www.w3.org/1999/xlink" xml:space="preserve" xmlns:serif="http://www.serif.com/" style="fill-rule:evenodd;clip-rule:evenodd;"><g><g><g><g><clipPath id="_clip1"><path d="M70830.954,12659.15c0,0 166980.104,0 166980.104,0c36168.975,0 58171.804,22002.812 58171.804,58171.804l0,166980.104c0,36168.975 -22002.813,58171.804 -58171.804,58171.804l-166980.104,0c-36168.975,0 -58171.804,-22002.813 -58171.804,-58171.804l0,-166980.104c0,-36168.975 22002.812,-58171.804 58171.804,-58171.804Z"/></clipPath><g clip-path="url(#_clip1)"><rect x="0" y="0" width="308641.996" height="308641.996" style="fill:url(#_Linear2);"/><rect x="0" y="0" width="308641.996" height="308641.996" style="fill:url(#_Radial3);"/><g><path d="M175552.067,93572.379l0,66915.938c0,6106.842 -4958.004,11064.842 -11064.842,11064.842l-84303.542,0c-6106.842,0 -11064.842,-4958.004 -11064.842,-11064.842l0,-66915.938c0,-6106.842 4958.004,-11064.842 11064.842,-11064.842l84303.542,0c6106.842,0 11064.842,4958.004 11064.842,11064.842Z" style="fill:url(#_Linear4);stroke:#a8c4ff;stroke-width:1317px;"/><path d="M205861.667,110394.808c0,-0 0,76557.658 0,76557.658c0,6986.771 -5672.379,12659.15 -12659.15,12659.15l-96450.592,0c-6986.771,0 -12659.15,-5672.379 -12659.15,-12659.15l0,-76557.658c0,-6986.771 5672.379,-12659.15 12659.15,-12659.15l96450.592,0c6986.771,0 12659.15,5672.379 12659.15,12659.15Z" style="fill:url(#_Linear5);stroke:#a8c4ff;stroke-width:1506.79px;"/></g><g><path d="M242633.492,129303.992l0,83791.458c0,8650.312 -7022.933,15673.246 -15673.246,15673.246l-111521.042,0c-8650.312,0 -15673.246,-7022.933 -15673.246,-15673.246l0,-83791.458c0,-8650.312 7022.933,-15673.246 15673.246,-15673.246l111521.042,0c8650.312,0 15673.246,7022.933 15673.246,15673.246Z" style="fill:url(#_Linear6);stroke:url(#_Linear7);stroke-width:2110.08px;"/><circle cx="117850.504" cy="129605.346" r="3616.892" style="fill:#ff5f57;"/><circle cx="129605.417" cy="129605.346" r="3616.892" style="fill:#ffbd2e;"/><circle cx="141360.329" cy="129605.346" r="3616.892" style="fill:#28c840;"/></g><path d="M295982.846,70830.954l0,166980.104c0,32105.904 -26065.904,58171.804 -58171.804,58171.804l-166980.104,0c-32105.904,0 -58171.804,-26065.904 -58171.804,-58171.804l0,-166980.104c0,-32105.904 26065.904,-58171.804 58171.804,-58171.804l166980.104,0c32105.904,0 58171.804,26065.904 58171.804,58171.804Z" style="fill:none;stroke:#5d87ea;stroke-opacity:0.55;stroke-width:3014.42px;"/><path d="M292365.954,71132.308c0,-0 0,166377.308 0,166377.308c0,30276.042 -24580.296,54856.267 -54856.267,54856.267l-166377.308,0c-30276.042,0 -54856.267,-24580.296 -54856.267,-54856.267l-0,-166377.308c0,-30276.042 24580.296,-54856.267 54856.267,-54856.267l166377.308,-0c30276.042,0 54856.267,24580.296 54856.267,54856.267Z" style="fill:none;stroke:#fff;stroke-opacity:0.08;stroke-width:904.17px;"/></g></g></g></g></g><defs><linearGradient id="_Linear2" x1="0" y1="0" x2="1" y2="0" gradientUnits="userSpaceOnUse" gradientTransform="matrix(235098.379637,259211.033925,-259211.033925,235098.379637,36168.981475,24112.654304)"><stop offset="0" style="stop-color:#0b1f55;stop-opacity:1"/><stop offset="0.52" style="stop-color:#08204c;stop-opacity:1"/><stop offset="1" style="stop-color:#081533;stop-opacity:1"/></linearGradient><radialGradient id="_Radial3" cx="0" cy="0" r="1" gradientUnits="userSpaceOnUse" gradientTransform="matrix(179012.345713,0,0,179012.345713,154320.987638,209876.543196)"><stop offset="0" style="stop-color:#2276ff;stop-opacity:0.35"/><stop offset="1" style="stop-color:#2276ff;stop-opacity:0"/></radialGradient><linearGradient id="_Linear4" x1="0" y1="0" x2="1" y2="0" gradientUnits="userSpaceOnUse" gradientTransform="matrix(106433.253108,89045.64245,-89045.64245,106433.253108,69118.794633,82507.553596)"><stop offset="0" style="stop-color:#d8e5ff;stop-opacity:1"/><stop offset="1" style="stop-color:#5b8ff2;stop-opacity:1"/></linearGradient><linearGradient id="_Linear5" x1="0" y1="0" x2="1" y2="0" gradientUnits="userSpaceOnUse" gradientTransform="matrix(121768.904304,101875.964479,-101875.964479,121768.904304,84092.746892,97735.6867)"><stop offset="0" style="stop-color:#d8e5ff;stop-opacity:1"/><stop offset="1" style="stop-color:#5b8ff2;stop-opacity:1"/></linearGradient><linearGradient id="_Linear6" x1="0" y1="0" x2="1" y2="0" gradientUnits="userSpaceOnUse" gradientTransform="matrix(142867.476858,115137.924408,-115137.924408,142867.476858,99766.008388,113630.736408)"><stop offset="0" style="stop-color:#fff;stop-opacity:1"/><stop offset="0.6" style="stop-color:#eaf1ff;stop-opacity:1"/><stop offset="1" style="stop-color:#c9dcff;stop-opacity:1"/></linearGradient><linearGradient id="_Linear7" x1="0" y1="0" x2="1" y2="0" gradientUnits="userSpaceOnUse" gradientTransform="matrix(142867.476858,115137.924408,-115137.924408,142867.476858,99766.008388,113630.736408)"><stop offset="0" style="stop-color:#fff;stop-opacity:1"/><stop offset="1" style="stop-color:#75a4ff;stop-opacity:1"/></linearGradient></defs></svg>