<?xml version="1.0" encoding="UTF-8" standalone="no"?><!DOCTYPE svg PUBLIC "-//W3C//DTD SVG 1.1//EN" "http://www.w3.org/Graphics/SVG/1.1/DTD/svg11.dtd"><svg width="100%" height="100%" viewBox="0 0 17780 17780" version="1.1" xmlns="http://www.w3.org/2000/svg" xmlns:xlink="http://www.w3.org/1999/xlink" xml:space="preserve" xmlns:serif="http://www.serif.com/" style="fill-rule:evenodd;clip-rule:evenodd;"><g><g><clipPath id="_clip1"><path d="M4079.863,729.167l9618.054,0c2083.333,0 3350.696,1267.362 3350.696,3350.696l0,9618.054c0,2083.333 -1267.362,3350.696 -3350.696,3350.696l-9618.054,0c-2083.333,0 -3350.696,-1267.362 -3350.696,-3350.696l0,-9618.054c0,-2083.333 1267.362,-3350.696 3350.696,-3350.696Z"/></clipPath><g clip-path="url(#_clip1)"><rect x="0" y="0" width="17777.779" height="17777.779" style="fill:url(#_Linear2);"/><rect x="0" y="0" width="17777.779" height="17777.779" style="fill:url(#_Radial3);"/><g><path d="M9140.279,6915.249l0,3854.358c0,351.754 -285.581,637.335 -637.335,637.335l-4855.884,0c-351.754,0 -637.335,-285.581 -637.335,-637.335l0,-3854.358c0,-351.754 285.581,-637.335 637.335,-637.335l4855.884,0c351.754,0 637.335,285.581 637.335,637.335Z" style="fill:url(#_Linear4);stroke:#a8c4ff;stroke-width:75.86px;"/><path d="M10886.112,6747.221l0,4409.721c0,402.438 -326.729,729.167 -729.167,729.167l-5555.554,0c-402.438,0 -729.167,-326.729 -729.167,-729.167l0,-4409.721c0,-402.438 326.729,-729.167 729.167,-729.167l5555.554,0c402.438,0 729.167,326.729 729.167,729.167Z" style="fill:url(#_Linear5);stroke:#a8c4ff;stroke-width:86.79px;"/></g><g><path d="M13004.169,6476.39l0,4826.388c0,498.258 -404.521,902.779 -902.779,902.779l-6423.612,0c-498.258,0 -902.779,-404.521 -902.779,-902.779l0,-4826.388c0,-498.258 404.521,-902.779 902.779,-902.779l6423.612,0c498.258,0 902.779,404.521 902.779,902.779Z" style="fill:url(#_Linear6);stroke:url(#_Linear7);stroke-width:121.54px;"/><circle cx="5816.669" cy="6493.748" r="208.333" style="fill:#ff5f57;"/><circle cx="6493.752" cy="6493.748" r="208.333" style="fill:#ffbd2e;"/><circle cx="7170.835" cy="6493.748" r="208.333" style="fill:#28c840;"/></g><path d="M17048.612,4079.863l0,9618.054c0,1849.3 -1501.396,3350.696 -3350.696,3350.696l-9618.054,0c-1849.3,0 -3350.696,-1501.396 -3350.696,-3350.696l0,-9618.054c0,-1849.3 1501.396,-3350.696 3350.696,-3350.696l9618.054,0c1849.3,0 3350.696,1501.396 3350.696,3350.696Z" style="fill:none;stroke:#5d87ea;stroke-opacity:0.55;stroke-width:173.63px;"/><path d="M16840.279,4097.221l0,9583.333c0,1743.9 -1415.825,3159.721 -3159.721,3159.721l-9583.333,0c-1743.9,0 -3159.721,-1415.825 -3159.721,-3159.721l0,-9583.333c0,-1743.9 1415.825,-3159.721 3159.721,-3159.721l9583.333,0c1743.9,0 3159.721,1415.825 3159.721,3159.721Z" style="fill:none;stroke:#fff;stroke-opacity:0.08;stroke-width:52.08px;"/></g></g></g><defs><linearGradient id="_Linear2" x1="0" y1="0" x2="1" y2="0" gradientUnits="userSpaceOnUse" gradientTransform="matrix(13541.666667,14930.555554,-14930.555554,13541.666667,2083.333333,1388.888888)"><stop offset="0" style="stop-color:#0b1f55;stop-opacity:1"/><stop offset="0.52" style="stop-color:#08204c;stop-opacity:1"/><stop offset="1" style="stop-color:#081533;stop-opacity:1"/></linearGradient><radialGradient id="_Radial3" cx="0" cy="0" r="1" gradientUnits="userSpaceOnUse" gradientTransform="matrix(10311.111113,0,0,10311.111113,8888.888888,12088.888888)"><stop offset="0" style="stop-color:#2276ff;stop-opacity:0.35"/><stop offset="1" style="stop-color:#2276ff;stop-opacity:0"/></radialGradient><linearGradient id="_Linear4" x1="0" y1="0" x2="1" y2="0" gradientUnits="userSpaceOnUse" gradientTransform="matrix(6130.555379,5129.029005,-5129.029005,6130.555379,3009.722571,6277.915087)"><stop offset="0" style="stop-color:#d8e5ff;stop-opacity:1"/><stop offset="1" style="stop-color:#5b8ff2;stop-opacity:1"/></linearGradient><linearGradient id="_Linear5" x1="0" y1="0" x2="1" y2="0" gradientUnits="userSpaceOnUse" gradientTransform="matrix(7013.888888,5868.055554,-5868.055554,7013.888888,3872.222221,6018.055554)"><stop offset="0" style="stop-color:#d8e5ff;stop-opacity:1"/><stop offset="1" style="stop-color:#5b8ff2;stop-opacity:1"/></linearGradient><linearGradient id="_Linear6" x1="0" y1="0" x2="1" y2="0" gradientUnits="userSpaceOnUse" gradientTransform="matrix(8229.166667,6631.944446,-6631.944446,8229.166667,4775.002083,5573.610417)"><stop offset="0" style="stop-color:#fff;stop-opacity:1"/><stop offset="0.6" style="stop-color:#eaf1ff;stop-opacity:1"/><stop offset="1" style="stop-color:#c9dcff;stop-opacity:1"/></linearGradient><linearGradient id="_Linear7" x1="0" y1="0" x2="1" y2="0" gradientUnits="userSpaceOnUse" gradientTransform="matrix(8229.166667,6631.944446,-6631.944446,8229.166667,4775.002083,5573.610417)"><stop offset="0" style="stop-color:#fff;stop-opacity:1"/><stop offset="1" style="stop-color:#75a4ff;stop-opacity:1"/></linearGradient></defs></svg>